<svg id="color" enable-background="new 0 0 24 24" height="512" viewBox="0 0 24 24" width="512" xmlns="http://www.w3.org/2000/svg"><path d="m22 2.75c0-1.519-1.231-2.75-2.75-2.75h-14.5c-1.519 0-2.75 1.231-2.75 2.75v18.5c0 1.519 1.231 2.75 2.75 2.75h14.5c1.519 0 2.75-1.231 2.75-2.75z" fill="#eceff1"/><path d="m12 0h-7.25c-1.519 0-2.75 1.231-2.75 2.75v18.5c0 1.519 1.231 2.75 2.75 2.75h7.25z" fill="#cdd0d2"/><path d="m9.25 9h-1.5c-.965 0-1.75-.785-1.75-1.75v-2.5c0-.965.785-1.75 1.75-1.75h1.5c.414 0 .75.336.75.75s-.336.75-.75.75h-1.5c-.138 0-.25.112-.25.25v2.5c0 .138.112.25.25.25h1.5c.414 0 .75.336.75.75s-.336.75-.75.75z" fill="#607d8b"/><path d="m13.75 9c-.414 0-.75-.336-.75-.75v-4.5c0-.414.336-.75.75-.75s.75.336.75.75v4.5c0 .414-.336.75-.75.75z" fill="#607d8b"/><path d="m16.25 9c-.414 0-.75-.336-.75-.75v-4.5c0-.414.336-.75.75-.75s.75.336.75.75v4.5c0 .414-.336.75-.75.75z" fill="#607d8b"/><path d="m17.25 8h-4.5c-.414 0-.75-.336-.75-.75s.336-.75.75-.75h4.5c.414 0 .75.336.75.75s-.336.75-.75.75z" fill="#607d8b"/><path d="m17.25 5.5h-4.5c-.414 0-.75-.336-.75-.75s.336-.75.75-.75h4.5c.414 0 .75.336.75.75s-.336.75-.75.75z" fill="#607d8b"/><path d="m7.5 6h-1.5v1.25c0 .965.785 1.75 1.75 1.75h1.5c.414 0 .75-.336.75-.75s-.336-.75-.75-.75h-1.5c-.138 0-.25-.112-.25-.25z" fill="#546d79"/><path d="m14.5 8h-1.5v.25c0 .414.336.75.75.75s.75-.336.75-.75zm0-2h-1.5v.5h1.5z" fill="#546d79"/><path d="m17 8h-1.5v.25c0 .414.336.75.75.75s.75-.336.75-.75zm0-2h-1.5v.5h1.5z" fill="#546d79"/><path d="m17.25 6.5h-.25-1.5-1-1.5-.25c-.414 0-.75.336-.75.75s.336.75.75.75h.25 1.5 1 1.5.25c.414 0 .75-.336.75-.75s-.336-.75-.75-.75z" fill="#546d79"/><path d="m23.25 18.5h-2c-.414 0-.75-.336-.75-.75s.336-.75.75-.75h2c.414 0 .75.336.75.75s-.336.75-.75.75z" fill="#2196f3"/><g fill="#607d8b"><path d="m20.519 15.5c-.26 0-.512-.135-.65-.375-.207-.359-.084-.817.274-1.024l1.732-1c.359-.208.818-.085 1.024.274.207.359.084.817-.274 1.024l-1.732 1c-.119.069-.247.101-.374.101z"/><path d="m22.249 23c-.127 0-.256-.032-.374-.101l-1.732-1c-.358-.207-.481-.665-.274-1.024.206-.359.665-.482 1.024-.274l1.732 1c.358.207.481.665.274 1.024-.138.24-.39.375-.65.375z"/><path d="m12.75 18.5h-2c-.414 0-.75-.336-.75-.75s.336-.75.75-.75h2c.414 0 .75.336.75.75s-.336.75-.75.75z"/><path d="m13.481 15.5c-.127 0-.256-.032-.374-.101l-1.732-1c-.358-.207-.481-.665-.274-1.024.206-.359.664-.482 1.024-.274l1.732 1c.358.207.481.665.274 1.024-.138.24-.39.375-.65.375z"/><path d="m11.751 23c-.26 0-.512-.135-.65-.375-.207-.359-.084-.817.274-1.024l1.732-1c.36-.208.817-.085 1.024.274s.084.817-.274 1.024l-1.732 1c-.118.069-.247.101-.374.101z"/><path d="m23.25 18.5h-2c-.414 0-.75-.336-.75-.75s.336-.75.75-.75h2c.414 0 .75.336.75.75s-.336.75-.75.75z"/></g><path d="m19.809 13.036c.12-.247.191-.511.191-.786 0-1.262-1.317-2.25-3-2.25s-3 .988-3 2.25c0 .275.071.539.191.786-1.322 1.08-2.191 2.9-2.191 4.964 0 3.313 2.239 6 5 6s5-2.687 5-6c0-2.064-.869-3.884-2.191-4.964z" fill="#f44336"/><path d="m12.069 17h-1.319c-.414 0-.75.336-.75.75s.336.75.75.75h1.267c-.011-.165-.017-.332-.017-.5 0-.341.024-.675.069-1z" fill="#546d79"/><path d="m11.749 12.999c-.259 0-.511.135-.649.376-.207.359-.084.817.274 1.024l1.24.716c.214-.468.479-.897.785-1.278l-1.275-.736c-.118-.069-.247-.102-.375-.102z" fill="#546d79"/><path d="m12.615 20.885-1.24.716c-.358.207-.481.665-.274 1.024.139.24.391.375.65.375.127 0 .256-.032.374-.101l1.275-.736c-.306-.381-.571-.81-.785-1.278z" fill="#546d79"/><path d="m17 10c-1.683 0-3 .988-3 2.25 0 .275.071.539.191.786-.286.234-.551.502-.791.801-.306.381-.571.811-.785 1.278-.264.577-.452 1.212-.546 1.885-.045.325-.069.659-.069 1 0 .168.006.335.017.5.059.859.269 1.667.598 2.385.214.468.479.897.785 1.279.909 1.132 2.186 1.836 3.6 1.836z" fill="#d43a2f"/></svg>