<svg id="Layer_3" height="512" viewBox="0 0 64 64" width="512" xmlns="http://www.w3.org/2000/svg" data-name="Layer 3"><path d="m62 13h-60v-7a4 4 0 0 1 4-4h52a4 4 0 0 1 4 4z" fill="#3b5892"/><path d="m57.105 11a2 2 0 0 0 2-2v-6.826a3.958 3.958 0 0 0 -1.105-.174h-52a4 4 0 0 0 -4 4v5z" fill="#4c6cb5"/><path d="m62 13v45a4 4 0 0 1 -4 4h-52a4 4 0 0 1 -4-4v-45z" fill="#c8cded"/><path d="m59 13h-57v45h57z" fill="#e2e7f6"/><path d="m8 19h12v12h-12z" fill="#fff"/><path d="m8 37h12v12h-12z" fill="#fff"/><g fill="#5e87ca"><rect height="4" rx="2" width="24" x="6" y="5"/><circle cx="57" cy="7" r="2"/><circle cx="51" cy="7" r="2"/></g><path d="m11 24 4 4 10-10-2-2-8 8-2-2.001z" fill="#559b2d"/><path d="m11 42 4 4 10-10-2-2-8 8-2-2.001z" fill="#559b2d"/><g fill="#9da1bf"><path d="m27 28h30v2h-30z"/><path d="m31 24h26v2h-26z"/><path d="m27 24h2v2h-2z"/><path d="m27 46h30v2h-30z"/><path d="m31 42h26v2h-26z"/><path d="m27 42h2v2h-2z"/></g><path d="m35 52h22v6h-22z" fill="#5e87ca"/><path d="m35 52h19v4h-19z" fill="#78a0d4"/></svg>