<svg height="512pt" viewBox="0 0 512 512" width="512pt" xmlns="http://www.w3.org/2000/svg"><path d="m512 114.601562v336.796876c0 33.410156-27.191406 60.601562-60.601562 60.601562h-390.796876c-33.410156 0-60.601562-27.191406-60.601562-60.601562v-336.796876l255.71875-20zm0 0" fill="#ff9f3b"/><path d="m512 114.601562v336.796876c0 33.410156-27.191406 60.601562-60.601562 60.601562h-195.679688v-417.398438zm0 0" fill="#ff5b5b"/><path d="m512 60.601562v54h-512v-54c0-33.410156 27.191406-60.601562 60.601562-60.601562h390.796876c33.410156 0 60.601562 27.191406 60.601562 60.601562zm0 0" fill="#00429b"/><path d="m512 60.601562v54h-256.28125v-114.601562h195.679688c33.410156 0 60.601562 27.191406 60.601562 60.601562zm0 0" fill="#002659"/><g fill="#fff"><path d="m81.171875 42.300781h-15.300781c-8.28125 0-15 6.714844-15 15 0 8.285157 6.71875 15 15 15h15.300781c8.285156 0 15-6.714843 15-15 0-8.285156-6.714844-15-15-15zm0 0"/><path d="m136.660156 42.300781h-15.300781c-8.285156 0-15 6.714844-15 15 0 8.285157 6.714844 15 15 15h15.300781c8.285156 0 15-6.714843 15-15 0-8.285156-6.714844-15-15-15zm0 0"/><path d="m192.011719 42.300781h-15.300781c-8.285157 0-15 6.714844-15 15 0 8.285157 6.714843 15 15 15h15.300781c8.28125 0 15-6.714843 15-15 0-8.285156-6.71875-15-15-15zm0 0"/><path d="m309.839844 245.511719-43.230469 43.226562c-2.929687 2.933594-6.769531 4.402344-10.609375 4.402344-.089844 0-.191406 0-.28125-.011719-3.75-.058594-7.46875-1.527344-10.328125-4.390625l-43.230469-43.226562c-5.859375-5.863281-5.859375-15.363281 0-21.210938 5.859375-5.859375 15.351563-5.859375 21.210938 0l32.347656 32.339844.28125.28125 32.628906-32.621094c5.859375-5.859375 15.351563-5.859375 21.210938 0 5.859375 5.847657 5.859375 15.347657 0 21.210938zm0 0"/><path d="m188.039062 354.519531c8.28125 0 15-6.71875 15-15 0-8.285156-6.71875-15-15-15h-39.503906c-8.28125 0-15 6.714844-15 15 0 8.28125 6.71875 15 15 15zm0 0"/></g><path d="m363.464844 324.519531h-39.503906c-8.28125 0-15 6.714844-15 15 0 8.28125 6.71875 15 15 15h39.503906c8.28125 0 15-6.71875 15-15 0-8.285156-6.71875-15-15-15zm0 0" fill="#e9efff"/><path d="m205.503906 291.613281-38.503906-23.171875c-7.101562-4.273437-16.3125-1.980468-20.585938 5.113282-4.273437 7.097656-1.980468 16.316406 5.113282 20.589843l38.503906 23.171875c2.421875 1.457032 5.085938 2.152344 7.722656 2.152344 5.085938 0 10.050782-2.589844 12.863282-7.265625 4.273437-7.097656 1.984374-16.316406-5.113282-20.589844zm0 0" fill="#fff"/><path d="m360.472656 384.890625-38.503906-23.171875c-7.101562-4.277344-16.316406-1.984375-20.585938 5.113281-4.273437 7.097657-1.980468 16.316407 5.113282 20.589844l38.503906 23.171875c2.421875 1.457031 5.089844 2.152344 7.722656 2.152344 5.085938 0 10.050782-2.589844 12.863282-7.265625 4.273437-7.097657 1.980468-16.316407-5.113282-20.589844zm0 0" fill="#e9efff"/><path d="m190.03125 361.71875-38.503906 23.171875c-7.097656 4.273437-9.386719 13.492187-5.113282 20.589844 2.8125 4.675781 7.777344 7.265625 12.863282 7.265625 2.632812 0 5.300781-.695313 7.722656-2.152344l38.5-23.171875c7.097656-4.273437 9.390625-13.488281 5.117188-20.585937-4.273438-7.101563-13.488282-9.390626-20.585938-5.117188zm0 0" fill="#fff"/><path d="m301.382812 312.203125c2.816407 4.675781 7.777344 7.265625 12.867188 7.265625 2.632812 0 5.300781-.695312 7.71875-2.152344l38.503906-23.171875c7.097656-4.273437 9.386719-13.488281 5.113282-20.585937-4.269532-7.097656-13.488282-9.390625-20.585938-5.117188l-38.5 23.171875c-7.097656 4.273438-9.390625 13.492188-5.117188 20.589844zm0 0" fill="#e9efff"/><path d="m309.839844 245.511719-43.230469 43.226562c-2.929687 2.933594-6.769531 4.402344-10.609375 4.402344-.089844 0-.191406 0-.28125-.011719v-36.488281l.28125.28125 32.628906-32.621094c5.859375-5.859375 15.351563-5.859375 21.210938 0 5.859375 5.847657 5.859375 15.347657 0 21.210938zm0 0" fill="#e9efff"/><path d="m338.960938 339.519531c0 45.742188-37.210938 82.960938-82.960938 82.960938h-.28125c-45.617188-.152344-82.679688-37.308594-82.679688-82.960938 0-45.660156 37.0625-82.808593 82.679688-82.960937h.28125c45.75 0 82.960938 37.210937 82.960938 82.960937zm0 0" fill="#fff"/><path d="m338.960938 339.519531c0 45.742188-37.210938 82.960938-82.960938 82.960938h-.28125v-165.921875h.28125c45.75 0 82.960938 37.210937 82.960938 82.960937zm0 0" fill="#e9efff"/></svg>