<svg xmlns="http://www.w3.org/2000/svg" width="438.53" height="438.537" viewBox="0 0 438.53 438.537">
  <g id="twitter-sign" transform="translate(-0.003)">
    <path id="Path_158" data-name="Path 158" d="M414.41,24.123Q390.295,0,356.315,0H82.228q-33.972,0-58.1,24.123T0,82.225V356.309q0,33.971,24.123,58.1t58.1,24.126H356.312q33.972,0,58.1-24.126t24.126-58.1V82.225Q438.532,48.252,414.41,24.123ZM335.471,168.735a75.7,75.7,0,0,1,.288,7.71A172.759,172.759,0,0,1,307.348,270.8a179.947,179.947,0,0,1-34.4,39.115q-19.988,16.98-47.968,27.117a174.554,174.554,0,0,1-59.953,10.143A168.256,168.256,0,0,1,73.1,320.342a115.7,115.7,0,0,0,14.275.855q41.4,0,74.519-25.7a56.887,56.887,0,0,1-34.688-11.991,60.934,60.934,0,0,1-21.271-29.691,80.394,80.394,0,0,0,11.132,1.137,55.806,55.806,0,0,0,14.56-2.279,59.977,59.977,0,0,1-35.115-20.7,57.01,57.01,0,0,1-14.277-38.114v-.571q15.127,7.133,28.549,7.422Q84.8,183.293,84.8,150.75a59.378,59.378,0,0,1,8.278-30.264A169.942,169.942,0,0,0,147.9,164.738,169.743,169.743,0,0,0,216.989,183.3a55.106,55.106,0,0,1-1.427-13.7,59.955,59.955,0,0,1,59.954-59.96q26.272,0,43.688,18.846a119.26,119.26,0,0,0,38.26-14.56q-7.135,21.978-26.55,33.4a127.1,127.1,0,0,0,34.537-9.708A116.6,116.6,0,0,1,335.471,168.735Z" fill="#fff"/>
  </g>
</svg>
